<?xml version="1.0" encoding="UTF-8" standalone="no"?>
<svg
   xmlns:dc="http://purl.org/dc/elements/1.1/"
   xmlns:cc="http://creativecommons.org/ns#"
   xmlns:rdf="http://www.w3.org/1999/02/22-rdf-syntax-ns#"
   xmlns:svg="http://www.w3.org/2000/svg"
   xmlns="http://www.w3.org/2000/svg"
   id="svg1049"
   version="1.1"
   viewBox="0 0 204.67688 62.976341"
   height="62.976341mm"
   width="204.67688mm">
  <defs
     id="defs1043" />
  <metadata
     id="metadata1046">
    <rdf:RDF>
      <cc:Work
         rdf:about="">
        <dc:format>image/svg+xml</dc:format>
        <dc:type
           rdf:resource="http://purl.org/dc/dcmitype/StillImage" />
        <dc:title></dc:title>
      </cc:Work>
    </rdf:RDF>
  </metadata>
  <g
     transform="translate(138.6068,-95.714302)"
     id="layer1">
    <path
       style="opacity:1;fill:#a6a7a8;fill-opacity:1;stroke:none;stroke-width:0.26423782px;stroke-linecap:butt;stroke-linejoin:miter;stroke-opacity:1"
       d="M -138.1068,109.3204 V 96.241293 h 33.49853 c 0,0 18.28406,-1.44287 18.28406,18.714667 0,20.15755 -18.28406,18.92114 -18.28406,18.92114 h -6.40609 l 25.223982,9.67587 v 14.6139 l -38.703472,-15.34794 v 15.34794 h -13.61295 v -21.08673 c 0,-9.27129 5.40999,-16.68253 16.68253,-16.68253 5.60534,0 11.21067,-1e-5 16.816,-1e-5 0.49288,0 4.22639,-0.2053 4.27072,-5.44164 0.0444,-5.23633 -3.77755,-5.63556 -4.27072,-5.63556 -10.9353,0 -33.49853,0 -33.49853,0 z"
       id="path1001" />
  </g>
  <g
     transform="translate(-0.03446999,-2.2916165e-4)"
     id="layer3">
    <path
       style="opacity:1;fill:#002c50;fill-opacity:1;stroke:none;stroke-width:0.56782538px;stroke-linecap:butt;stroke-linejoin:miter;stroke-opacity:1"
       d="m 168.38869,0.50022917 c -8.3786,0 -17.98753,6.27844173 -17.98753,18.63452183 0,12.356061 9.53597,18.63452 17.98753,18.63452 h 17.54725 c 0,0 5.39657,0.216599 5.39657,6.04356 0,5.82694 -5.39657,5.82807 -5.39657,5.82807 h -28.54802 c -6.09951,0 -12.99518,-1.843285 -12.99518,-13.31495 V 18.452105 c 0,-8.34949 -6.25677,-17.92500408 -18.56993,-17.92500408 -12.31315,0 -18.56992,9.50283408 -18.56992,17.92500408 v 25.811343 c 0,0 -0.21617,5.37745 -6.02289,5.37745 -5.806691,0 -5.8074,-5.37745 -5.8074,-5.37745 V 18.452105 c 0,-8.21832 -6.048455,-17.92500408 -18.641757,-17.92500408 -12.593309,0 -18.569924,9.57118408 -18.569924,17.92500408 0,14.674348 0.0011,44.022635 0.0011,44.022635 l 12.816271,-0.077 0.01654,-43.945636 c 0,0 0.0011,-5.090645 5.736085,-5.090645 5.735032,0 5.87923,5.090645 5.87923,5.090645 v 25.811343 c 0,8.78468 7.261534,18.211808 18.569925,18.211808 11.30841,0 18.78542,-9.101457 18.78542,-18.211808 V 18.452105 c 0,0 5.2e-4,-5.090645 5.80739,-5.090645 5.80671,0 5.73609,5.090645 5.73609,5.090645 v 17.873843 c 0,15.561161 6.56738,26.148792 26.40263,26.148792 19.83525,0 19.97883,0.0123 27.97438,-0.02687 8.8153,0 18.27537,-7.28726 18.27537,-18.635038 0,-11.347821 -9.13326,-18.850529 -18.27537,-18.850529 h -17.54725 c 0,0 -5.10821,-6.35e-4 -5.10821,-5.827551 0,-5.82695 5.10821,-5.755721 5.10821,-5.755721 h 33.75918 V 0.50022917 Z"
       id="path1003" />
  </g>
</svg>
