<?xml version="1.0" encoding="UTF-8" standalone="no"?>
<svg
   xmlns:dc="http://purl.org/dc/elements/1.1/"
   xmlns:cc="http://creativecommons.org/ns#"
   xmlns:rdf="http://www.w3.org/1999/02/22-rdf-syntax-ns#"
   xmlns:svg="http://www.w3.org/2000/svg"
   xmlns="http://www.w3.org/2000/svg"
   width="204.71112mm"
   height="79.024223mm"
   viewBox="0 0 204.71112 79.024223"
   version="1.1"
   id="svg1049">
  <defs
     id="defs1043" />
  <metadata
     id="metadata1046">
    <rdf:RDF>
      <cc:Work
         rdf:about="">
        <dc:format>image/svg+xml</dc:format>
        <dc:type
           rdf:resource="http://purl.org/dc/dcmitype/StillImage" />
        <dc:title></dc:title>
      </cc:Work>
    </rdf:RDF>
  </metadata>
  <g
     id="layer1"
     transform="translate(138.64127,-95.714073)">
    <path
       id="path1001"
       d="M -138.1068,109.3204 V 96.241293 h 33.49853 c 0,0 18.28406,-1.44287 18.28406,18.714667 0,20.15755 -18.28406,18.92114 -18.28406,18.92114 h -6.40609 l 25.223982,9.67587 v 14.6139 l -38.703472,-15.34794 v 15.34794 h -13.61295 v -21.08673 c 0,-9.27129 5.40999,-16.68253 16.68253,-16.68253 5.60534,0 11.21067,-1e-5 16.816,-1e-5 0.49288,0 4.22639,-0.2053 4.27072,-5.44164 0.0444,-5.23633 -3.77755,-5.63556 -4.27072,-5.63556 -10.9353,0 -33.49853,0 -33.49853,0 z"
       style="opacity:1;fill:#a6a7a8;fill-opacity:1;stroke:none;stroke-width:0.26423782px;stroke-linecap:butt;stroke-linejoin:miter;stroke-opacity:1" />
    <path
       id="path1708"
       style="font-style:normal;font-variant:normal;font-weight:normal;font-stretch:normal;font-size:medium;line-height:1.25;font-family:'Open Sans';-inkscape-font-specification:'Open Sans';text-align:center;letter-spacing:1.40537226px;word-spacing:0px;text-anchor:middle;fill:#959697;fill-opacity:1;stroke:none;stroke-width:0.33183324"
       d="m -136.96603,169.89681 v 4.20323 h -1.17524 v -10.10709 h 2.77219 q 1.85965,0 2.74453,0.71206 0.89181,0.71206 0.89181,2.14309 0,2.00482 -2.03248,2.70997 l 2.74454,4.54197 h -1.38956 l -2.44727,-4.20323 z m 0,-1.00932 h 1.61077 q 1.24438,0 1.82509,-0.49084 0.5807,-0.49775 0.5807,-1.48633 0,-1.00242 -0.59453,-1.44486 -0.58762,-0.44245 -1.89422,-0.44245 h -1.52781 z" />
    <path
       id="path1710"
       style="font-style:normal;font-variant:normal;font-weight:normal;font-stretch:normal;font-size:medium;line-height:1.25;font-family:'Open Sans';-inkscape-font-specification:'Open Sans';text-align:center;letter-spacing:1.40537226px;word-spacing:0px;text-anchor:middle;fill:#959697;fill-opacity:1;stroke:none;stroke-width:0.33183324"
       d="m -127.96997,174.10004 v -10.10709 h 1.17524 v 9.04245 h 4.45901 v 1.06464 z" />
    <path
       id="path1712"
       style="font-style:normal;font-variant:normal;font-weight:normal;font-stretch:normal;font-size:medium;line-height:1.25;font-family:'Open Sans';-inkscape-font-specification:'Open Sans';text-align:center;letter-spacing:1.40537226px;word-spacing:0px;text-anchor:middle;fill:#959697;fill-opacity:1;stroke:none;stroke-width:0.33183324"
       d="m -119.20896,174.10004 v -10.10709 h 1.17524 v 10.10709 z" />
    <path
       id="path1714"
       style="font-style:normal;font-variant:normal;font-weight:normal;font-stretch:normal;font-size:medium;line-height:1.25;font-family:'Open Sans';-inkscape-font-specification:'Open Sans';text-align:center;letter-spacing:1.40537226px;word-spacing:0px;text-anchor:middle;fill:#002c50;fill-opacity:1;stroke:none;stroke-width:0.33183324"
       d="m -104.29322,174.10004 -3.42894,-8.9595 h -0.0553 q 0.0968,1.06463 0.0968,2.53023 v 6.42927 h -1.08537 v -10.10709 h 1.76977 l 3.20081,8.33731 h 0.0553 l 3.22846,-8.33731 h 1.755951 v 10.10709 h -1.175243 v -6.51223 q 0,-1.11994 0.09678,-2.43345 h -0.0553 l -3.456598,8.94568 z" />
    <path
       id="path1716"
       style="font-style:normal;font-variant:normal;font-weight:normal;font-stretch:normal;font-size:medium;line-height:1.25;font-family:'Open Sans';-inkscape-font-specification:'Open Sans';text-align:center;letter-spacing:1.40537226px;word-spacing:0px;text-anchor:middle;fill:#002c50;fill-opacity:1;stroke:none;stroke-width:0.33183324"
       d="m -88.231874,174.10004 -1.258201,-3.21464 h -4.051132 l -1.244375,3.21464 h -1.189069 l 3.995826,-10.14857 h 0.988587 l 3.975086,10.14857 z m -1.624601,-4.27236 -1.175242,-3.13167 q -0.228136,-0.59454 -0.470098,-1.45869 -0.15209,0.66367 -0.435531,1.45869 l -1.189069,3.13167 z" />
    <path
       id="path1718"
       style="font-style:normal;font-variant:normal;font-weight:normal;font-stretch:normal;font-size:medium;line-height:1.25;font-family:'Open Sans';-inkscape-font-specification:'Open Sans';text-align:center;letter-spacing:1.40537226px;word-spacing:0px;text-anchor:middle;fill:#002c50;fill-opacity:1;stroke:none;stroke-width:0.33183324"
       d="m -76.32536,174.10004 h -1.34116 l -5.523641,-8.48249 h -0.05531 q 0.110611,1.49325 0.110611,2.73762 v 5.74487 h -1.085371 v -10.10709 h 1.327333 l 5.509815,8.44792 h 0.05531 q -0.01383,-0.18666 -0.06222,-1.19598 -0.04839,-1.01624 -0.03457,-1.45177 v -5.80017 h 1.099198 z" />
    <path
       id="path1720"
       style="font-style:normal;font-variant:normal;font-weight:normal;font-stretch:normal;font-size:medium;line-height:1.25;font-family:'Open Sans';-inkscape-font-specification:'Open Sans';text-align:center;letter-spacing:1.40537226px;word-spacing:0px;text-anchor:middle;fill:#002c50;fill-opacity:1;stroke:none;stroke-width:0.33183324"
       d="m -65.78766,174.10004 -1.258201,-3.21464 h -4.051132 l -1.244375,3.21464 h -1.189069 l 3.995826,-10.14857 h 0.988587 l 3.975086,10.14857 z m -1.624601,-4.27236 -1.175243,-3.13167 q -0.228135,-0.59454 -0.470097,-1.45869 -0.15209,0.66367 -0.435531,1.45869 l -1.189069,3.13167 z" />
    <path
       id="path1722"
       style="font-style:normal;font-variant:normal;font-weight:normal;font-stretch:normal;font-size:medium;line-height:1.25;font-family:'Open Sans';-inkscape-font-specification:'Open Sans';text-align:center;letter-spacing:1.40537226px;word-spacing:0px;text-anchor:middle;fill:#002c50;fill-opacity:1;stroke:none;stroke-width:0.33183324"
       d="m -57.330833,168.80453 h 3.435857 v 4.91528 q -0.801931,0.25579 -1.631514,0.38714 -0.829583,0.13135 -1.921868,0.13135 -2.29518,0 -3.574121,-1.3619 -1.278941,-1.36881 -1.278941,-3.82991 0,-1.57621 0.629101,-2.75836 0.636014,-1.18907 1.825083,-1.81126 1.189069,-0.6291 2.786017,-0.6291 1.617687,0 3.014152,0.59454 l -0.45627,1.03697 q -1.368813,-0.5807 -2.633927,-0.5807 -1.845823,0 -2.882802,1.09919 -1.036979,1.0992 -1.036979,3.04872 0,2.04631 0.9955,3.10403 1.002413,1.05771 2.938107,1.05771 1.050806,0 2.053219,-0.24196 v -3.11093 h -2.260614 z" />
    <path
       id="path1724"
       style="font-style:normal;font-variant:normal;font-weight:normal;font-stretch:normal;font-size:medium;line-height:1.25;font-family:'Open Sans';-inkscape-font-specification:'Open Sans';text-align:center;letter-spacing:1.40537226px;word-spacing:0px;text-anchor:middle;fill:#002c50;fill-opacity:1;stroke:none;stroke-width:0.33183324"
       d="m -44.421908,174.10004 h -5.634253 v -10.10709 h 5.634253 v 1.04389 h -4.45901 v 3.25611 h 4.189396 v 1.03698 h -4.189396 v 3.7193 h 4.45901 z" />
    <path
       id="path1726"
       style="font-style:normal;font-variant:normal;font-weight:normal;font-stretch:normal;font-size:medium;line-height:1.25;font-family:'Open Sans';-inkscape-font-specification:'Open Sans';text-align:center;letter-spacing:1.40537226px;word-spacing:0px;text-anchor:middle;fill:#002c50;fill-opacity:1;stroke:none;stroke-width:0.33183324"
       d="m -36.296909,174.10004 -3.428944,-8.9595 h -0.05531 q 0.09679,1.06463 0.09679,2.53023 v 6.42927 h -1.085372 v -10.10709 h 1.769778 l 3.200809,8.33731 h 0.05531 l 3.228461,-8.33731 h 1.755952 v 10.10709 h -1.175243 v -6.51223 q 0,-1.11994 0.09678,-2.43345 h -0.0553 l -3.456597,8.94568 z" />
    <path
       id="path1728"
       style="font-style:normal;font-variant:normal;font-weight:normal;font-stretch:normal;font-size:medium;line-height:1.25;font-family:'Open Sans';-inkscape-font-specification:'Open Sans';text-align:center;letter-spacing:1.40537226px;word-spacing:0px;text-anchor:middle;fill:#002c50;fill-opacity:1;stroke:none;stroke-width:0.33183324"
       d="m -20.954539,174.10004 h -5.634253 v -10.10709 h 5.634253 v 1.04389 h -4.45901 v 3.25611 h 4.189396 v 1.03698 h -4.189396 v 3.7193 h 4.45901 z" />
    <path
       id="path1730"
       style="font-style:normal;font-variant:normal;font-weight:normal;font-stretch:normal;font-size:medium;line-height:1.25;font-family:'Open Sans';-inkscape-font-specification:'Open Sans';text-align:center;letter-spacing:1.40537226px;word-spacing:0px;text-anchor:middle;fill:#002c50;fill-opacity:1;stroke:none;stroke-width:0.33183324"
       d="m -9.4075095,174.10004 h -1.3411595 l -5.523642,-8.48249 h -0.05531 q 0.110611,1.49325 0.110611,2.73762 v 5.74487 h -1.085371 v -10.10709 h 1.327333 l 5.509815,8.44792 h 0.05531 q -0.01383,-0.18666 -0.06222,-1.19598 -0.04839,-1.01624 -0.03457,-1.45177 v -5.80017 h 1.0991975 z" />
    <path
       id="path1732"
       style="font-style:normal;font-variant:normal;font-weight:normal;font-stretch:normal;font-size:medium;line-height:1.25;font-family:'Open Sans';-inkscape-font-specification:'Open Sans';text-align:center;letter-spacing:1.40537226px;word-spacing:0px;text-anchor:middle;fill:#002c50;fill-opacity:1;stroke:none;stroke-width:0.33183324"
       d="m -2.1120937,174.10004 h -1.1752429 v -9.0632 h -3.2008086 v -1.04389 h 7.5768601 v 1.04389 h -3.2008086 z" />
    <path
       id="path1734"
       style="font-style:normal;font-variant:normal;font-weight:normal;font-stretch:normal;font-size:medium;line-height:1.25;font-family:'Open Sans';-inkscape-font-specification:'Open Sans';text-align:center;letter-spacing:1.40537226px;word-spacing:0px;text-anchor:middle;fill:#002c50;fill-opacity:1;stroke:none;stroke-width:0.33183324"
       d="m 14.794654,171.4108 q 0,1.33425 -0.967847,2.08088 -0.967847,0.74662 -2.627013,0.74662 -1.7974305,0 -2.7652776,-0.46318 v -1.13377 q 0.6221874,0.2627 1.3549859,0.41479 0.7327987,0.15209 1.4517707,0.15209 1.175243,0 1.769777,-0.44244 0.594535,-0.44936 0.594535,-1.24437 0,-0.52541 -0.214309,-0.85724 -0.207396,-0.33875 -0.705146,-0.62219 -0.490836,-0.28344 -1.500163,-0.64292 -1.4102911,-0.50467 -2.0186521,-1.19599 -0.6014478,-0.69132 -0.6014478,-1.80434 0,-1.16833 0.8779755,-1.85965 0.8779754,-0.69132 2.3228334,-0.69132 1.507076,0 2.77219,0.55306 l -0.366399,1.02315 q -1.251288,-0.5254 -2.433444,-0.5254 -0.933281,0 -1.458684,0.40096 -0.5254026,0.40097 -0.5254026,1.11303 0,0.5254 0.1935694,0.86414 0.1935692,0.33184 0.6498402,0.61528 0.463184,0.27653 1.410291,0.61527 1.590035,0.56688 2.18457,1.21673 0.601447,0.64984 0.601447,1.68681 z" />
    <path
       id="path1736"
       style="font-style:normal;font-variant:normal;font-weight:normal;font-stretch:normal;font-size:medium;line-height:1.25;font-family:'Open Sans';-inkscape-font-specification:'Open Sans';text-align:center;letter-spacing:1.40537226px;word-spacing:0px;text-anchor:middle;fill:#002c50;fill-opacity:1;stroke:none;stroke-width:0.33183324"
       d="m 20.838774,169.04649 2.696146,-5.05354 h 1.272027 l -3.373638,6.18731 v 3.91978 H 20.24424 v -3.86448 l -3.366726,-6.24261 h 1.285854 z" />
    <path
       id="path1738"
       style="font-style:normal;font-variant:normal;font-weight:normal;font-stretch:normal;font-size:medium;line-height:1.25;font-family:'Open Sans';-inkscape-font-specification:'Open Sans';text-align:center;letter-spacing:1.40537226px;word-spacing:0px;text-anchor:middle;fill:#002c50;fill-opacity:1;stroke:none;stroke-width:0.33183324"
       d="m 33.312172,171.4108 q 0,1.33425 -0.967848,2.08088 -0.967847,0.74662 -2.627013,0.74662 -1.79743,0 -2.765278,-0.46318 v -1.13377 q 0.622188,0.2627 1.354986,0.41479 0.732799,0.15209 1.451771,0.15209 1.175243,0 1.769778,-0.44244 0.594534,-0.44936 0.594534,-1.24437 0,-0.52541 -0.214309,-0.85724 -0.207396,-0.33875 -0.705146,-0.62219 -0.490836,-0.28344 -1.500163,-0.64292 -1.410291,-0.50467 -2.018652,-1.19599 -0.601448,-0.69132 -0.601448,-1.80434 0,-1.16833 0.877976,-1.85965 0.877975,-0.69132 2.322833,-0.69132 1.507076,0 2.77219,0.55306 l -0.366399,1.02315 q -1.251288,-0.5254 -2.433444,-0.5254 -0.933281,0 -1.458684,0.40096 -0.525403,0.40097 -0.525403,1.11303 0,0.5254 0.19357,0.86414 0.193569,0.33184 0.64984,0.61528 0.463184,0.27653 1.410292,0.61527 1.590034,0.56688 2.184569,1.21673 0.601448,0.64984 0.601448,1.68681 z" />
    <path
       id="path1740"
       style="font-style:normal;font-variant:normal;font-weight:normal;font-stretch:normal;font-size:medium;line-height:1.25;font-family:'Open Sans';-inkscape-font-specification:'Open Sans';text-align:center;letter-spacing:1.40537226px;word-spacing:0px;text-anchor:middle;fill:#002c50;fill-opacity:1;stroke:none;stroke-width:0.33183324"
       d="m 39.89552,174.10004 h -1.175242 v -9.0632 h -3.200809 v -1.04389 h 7.57686 v 1.04389 H 39.89552 Z" />
    <path
       id="path1742"
       style="font-style:normal;font-variant:normal;font-weight:normal;font-stretch:normal;font-size:medium;line-height:1.25;font-family:'Open Sans';-inkscape-font-specification:'Open Sans';text-align:center;letter-spacing:1.40537226px;word-spacing:0px;text-anchor:middle;fill:#002c50;fill-opacity:1;stroke:none;stroke-width:0.33183324"
       d="m 51.649946,174.10004 h -5.634253 v -10.10709 h 5.634253 v 1.04389 h -4.45901 v 3.25611 h 4.189395 v 1.03698 h -4.189395 v 3.7193 h 4.45901 z" />
    <path
       id="path1744"
       style="font-style:normal;font-variant:normal;font-weight:normal;font-stretch:normal;font-size:medium;line-height:1.25;font-family:'Open Sans';-inkscape-font-specification:'Open Sans';text-align:center;letter-spacing:1.40537226px;word-spacing:0px;text-anchor:middle;fill:#002c50;fill-opacity:1;stroke:none;stroke-width:0.33183324"
       d="m 59.774937,174.10004 -3.428944,-8.9595 h -0.05531 q 0.09679,1.06463 0.09679,2.53023 v 6.42927 H 55.3021 v -10.10709 h 1.769778 l 3.200809,8.33731 h 0.05531 l 3.228462,-8.33731 h 1.755951 v 10.10709 h -1.175243 v -6.51223 q 0,-1.11994 0.09678,-2.43345 h -0.05531 l -3.456597,8.94568 z" />
  </g>
  <g
     id="layer3">
    <path
       id="path1003"
       d="m 168.38869,0.50022917 c -8.3786,0 -17.98753,6.27844173 -17.98753,18.63452183 0,12.356061 9.53597,18.63452 17.98753,18.63452 h 17.54725 c 0,0 5.39657,0.216599 5.39657,6.04356 0,5.82694 -5.39657,5.82807 -5.39657,5.82807 h -28.54802 c -6.09951,0 -12.99518,-1.843285 -12.99518,-13.31495 V 18.452105 c 0,-8.34949 -6.25677,-17.92500408 -18.56993,-17.92500408 -12.31315,0 -18.56992,9.50283408 -18.56992,17.92500408 v 25.811343 c 0,0 -0.21617,5.37745 -6.02289,5.37745 -5.806691,0 -5.8074,-5.37745 -5.8074,-5.37745 V 18.452105 c 0,-8.21832 -6.048455,-17.92500408 -18.641757,-17.92500408 -12.593309,0 -18.569924,9.57118408 -18.569924,17.92500408 0,14.674348 0.0011,44.022635 0.0011,44.022635 l 12.816271,-0.077 0.01654,-43.945636 c 0,0 0.0011,-5.090645 5.736085,-5.090645 5.735032,0 5.87923,5.090645 5.87923,5.090645 v 25.811343 c 0,8.78468 7.261534,18.211808 18.569925,18.211808 11.30841,0 18.78542,-9.101457 18.78542,-18.211808 V 18.452105 c 0,0 5.2e-4,-5.090645 5.80739,-5.090645 5.80671,0 5.73609,5.090645 5.73609,5.090645 v 17.873843 c 0,15.561161 6.56738,26.148792 26.40263,26.148792 19.83525,0 19.97883,0.0123 27.97438,-0.02687 8.8153,0 18.27537,-7.28726 18.27537,-18.635038 0,-11.347821 -9.13326,-18.850529 -18.27537,-18.850529 h -17.54725 c 0,0 -5.10821,-6.35e-4 -5.10821,-5.827551 0,-5.82695 5.10821,-5.755721 5.10821,-5.755721 h 33.75918 V 0.50022917 Z"
       style="opacity:1;fill:#002c50;fill-opacity:1;stroke:none;stroke-width:0.56782538px;stroke-linecap:butt;stroke-linejoin:miter;stroke-opacity:1" />
  </g>
</svg>
